# Blender 4.3.2
# www.blender.org
mtllib arrow.mtl
o Cube
v 0.398513 2.826870 -4.871468
v -0.349472 2.826870 -4.871468
v 1.000000 2.826870 4.871468
v -1.000000 2.826870 4.871468
v 0.398513 4.826870 -4.871468
v -0.349472 4.826870 -4.871468
v 1.000000 4.826870 4.871468
v -1.000000 4.826870 4.871468
v -1.000000 4.826870 -3.120265
v 1.000000 2.826870 -3.120265
v 1.000000 4.826870 -3.120265
v -1.000000 2.826870 -3.120265
v 2.248004 4.826870 -3.120265
v 2.248004 2.826870 -3.120265
v -2.226913 2.826870 -3.120265
v -2.226913 4.826870 -3.120265
vn 1.0000 -0.0000 -0.0000
vn -0.0000 -0.0000 1.0000
vn -0.0000 1.0000 -0.0000
vn -1.0000 -0.0000 -0.0000
vn -0.0000 -1.0000 -0.0000
vn -0.0000 -0.0000 -1.0000
vn 0.6875 -0.0000 -0.7261
vn -0.6821 -0.0000 -0.7313
vt 0.625000 0.544935
vt 0.875000 0.544935
vt 0.875000 0.750000
vt 0.625000 0.750000
vt 0.375000 0.750000
vt 0.625000 1.000000
vt 0.375000 1.000000
vt 0.375000 0.205065
vt 0.625000 0.205065
vt 0.549814 0.250000
vt 0.492271 0.250000
vt 0.125000 0.544935
vt 0.375000 0.544935
vt 0.125000 0.750000
vt 0.549814 0.500000
vt 0.492271 0.500000
vt 0.375000 0.000000
vt 0.625000 0.000000
vt 0.875000 0.480002
vt 0.125000 0.468357
s 0
usemtl Material
f 10/1/1 11/2/1 7/3/1 3/4/1
f 4/5/2 3/4/2 7/6/2 8/7/2
f 9/8/3 11/9/3 5/10/3 6/11/3
f 9/12/4 12/13/4 4/5/4 8/14/4
f 12/13/5 10/1/5 3/4/5 4/5/5
f 6/11/6 5/10/6 1/15/6 2/16/6
f 2/16/5 1/15/5 10/1/5 12/13/5
f 2/16/5 12/13/5 15/13/5
f 8/17/3 7/18/3 11/9/3 9/8/3
f 10/1/5 1/15/5 14/1/5
f 1/15/7 5/19/7 13/2/7 14/1/7
f 5/10/3 11/9/3 13/9/3
f 11/2/2 10/1/2 14/1/2 13/2/2
f 6/20/8 2/16/8 15/13/8 16/12/8
f 9/8/3 6/11/3 16/8/3
f 12/13/2 9/12/2 16/12/2 15/13/2
